<?xml version="1.0" encoding="UTF-8"?>
<svg id="Layer_2" data-name="Layer 2" xmlns="http://www.w3.org/2000/svg" viewBox="0 0 395.15 198.33">
  <g id="Layer_1-2" data-name="Layer 1">
    <g>
      <path fill="#00aeef" d="M27.89,95.34c-14.91,0-16.32,2.66-16.32,7.99v35.29c0,6.19,2.13,9.28,18.45,9.28h53.8c2.79,0,4.19,1.37,4.19,4.1s-1.39,4.18-4.19,4.18H28.34c-22.92,0-28.34-5.78-28.34-17.34v-35.52c0-10.85,5.15-16.28,27.51-16.28h56.17c2.69,0,4.03,1.37,4.03,4.11s-1.34,4.18-4.03,4.18H27.89Z"/>
      <path fill="#00aeef" d="M153.38,96.94l-48.07,57.58h-.23c-.51.76-1.13,1.29-1.86,1.6-.74.3-1.56.46-2.48.46-.76,0-1.5-.11-2.21-.35-.71-.23-1.34-.53-1.9-.91-.56-.38-1.02-.85-1.37-1.4-.35-.56-.53-1.19-.53-1.91,0-.41.04-.82.11-1.25.08-.43.29-.85.65-1.26l49.97-59.41c1.07-1.27,2.3-2.2,3.69-2.81,1.39-.61,2.8-.91,4.22-.91,3.09,0,5.71,1.25,7.83,3.73l50.05,59.26c.76.91,1.14,1.83,1.14,2.74,0,.71-.18,1.33-.53,1.87-.35.53-.8.99-1.36,1.37-.57.38-1.2.67-1.91.87-.71.2-1.39.3-2.05.3-.91,0-1.79-.18-2.62-.53-.84-.35-1.54-.91-2.09-1.67l-48.45-57.36Z"/>
      <path fill="#00aeef" d="M219.53,105.61c0-12.68,6.63-19.02,34.72-19.02h34.81c26.62,0,32.09,6.34,32.09,19.02v46.24c0,2.84-1.97,4.26-5.89,4.26s-5.98-1.43-5.98-4.26v-45.41c0-7.7-.86-11.56-18.29-11.56h-38.83c-18.95,0-21,3.83-21,11.49v45.48c0,2.84-2,4.26-6.01,4.26-3.75,0-5.63-1.43-5.63-4.26v-46.24Z"/>
      <path fill="#00aeef" d="M226.19,43.59h-2.22c-2.04,0-3.69-1.65-3.69-3.68s1.65-3.68,3.69-3.68h2.22c2.03,0,3.68,1.65,3.68,3.68s-1.65,3.68-3.68,3.68"/>
      <path fill="#00aeef" d="M215.65,58.2h-5.94c-2.03,0-3.68-1.64-3.68-3.68s1.65-3.68,3.68-3.68h5.94c2.03,0,3.68,1.64,3.68,3.68s-1.65,3.68-3.68,3.68"/>
      <path fill="#00aeef" d="M222.62,72.82h-1.76c-2.04,0-3.68-1.65-3.68-3.68s1.64-3.68,3.68-3.68h1.76c2.03,0,3.68,1.64,3.68,3.68s-1.65,3.68-3.68,3.68"/>
      <path fill="#00aeef" d="M263.03,54.64c0-7.77,4.1-14.58,10.24-18.41h-36.37c-2.07,0-3.74,1.68-3.74,3.74,0,1.6,1.01,2.96,2.43,3.49h7.18c2.03,0,3.68,1.65,3.68,3.68s-1.65,3.68-3.68,3.68h-16.54s-.08-.01-.13-.02h-.74c-2.03,0-3.68,1.65-3.68,3.68s1.65,3.68,3.68,3.68h9.67s.08-.01.13-.01h16.32c2.04,0,3.68,1.65,3.68,3.68s-1.64,3.68-3.68,3.68h-16.32s-2.47-.02-2.47-.02c-2.03,0-3.68,1.65-3.68,3.68,0,1.64,1.09,3.02,2.58,3.49h41.07c-5.8-3.9-9.62-10.52-9.62-18.04"/>
      <path fill="#00aeef" d="M379.7,31.98s-4.15-1.67-8.08-1.5c-2.91.12-5.68.53-8.27,1.46,3.57-2.02,7.68-3.2,12.07-3.2,1.48,0,2.93.15,4.34.41-.77-16.22-14.14-29.15-30.55-29.15-10.93,0-19.47,5-24.88,13.62,7.36,2.24,8.08,10.67,8.08,10.67-2.67-6.57-9.8-8.57-9.8-8.57-1.31-.23-2.64-.4-4.03-.4-9.38,0-16.49,3.63-20.04,11.7,10,.17,18.1,8.85,19.18,20.64-2.84-9.72-11.8-16.83-22.44-16.83-3.19,0-6.22.64-8.99,1.8-8.03,3.58-13.63,11.62-13.63,20.97,0,12.68,10.29,22.97,22.97,22.97h76.56c12.68,0,22.97-10.29,22.97-22.97,0-10.03-6.48-18.48-15.45-21.61"/>
      <path fill="#6d6e70" d="M279.84,197.97l.15-2.94c.53.18,1.05.28,1.54.28s.93-.14,1.25-.41c.44-.4.9-1.12,1.38-2.17l.81-1.8-2.51-18.44h2.53l1.14,9.29c.23,1.86.43,3.69.59,5.51l6.74-14.8h2.68l-9.61,20.82c-.96,2.1-1.8,3.46-2.54,4.08-.73.63-1.54.94-2.42.94-.6,0-1.18-.12-1.75-.37M278.73,188.32l-.45,2.56c-.61.2-1.21.3-1.78.3-.96,0-1.72-.25-2.28-.76-.56-.51-.84-1.19-.84-2.04,0-.4.13-1.33.38-2.79l1.81-10.68h-2.02l.41-2.42h2.03l.78-4.52,2.94-2.16-1.15,6.68h2.51l-.41,2.42h-2.51l-1.75,10.16c-.22,1.3-.33,2.07-.33,2.3,0,.41.09.7.28.89.19.18.47.27.85.27.57,0,1.07-.06,1.52-.21ZM266.16,190.87l3.15-18.38h2.56l-3.15,18.38h-2.56ZM269.89,169.04l.61-3.55h2.56l-.6,3.55h-2.57ZM251.86,184.59l2.58-.2c-.01,1.5.32,2.62.99,3.36.67.74,1.58,1.11,2.74,1.11,1.05,0,1.88-.26,2.49-.79.61-.53.92-1.2.92-2.01,0-.59-.19-1.12-.57-1.6-.39-.47-1.24-1.05-2.54-1.73-1.5-.79-2.49-1.39-2.97-1.81-.48-.42-.85-.93-1.12-1.54-.27-.6-.4-1.28-.4-2.03,0-1.54.5-2.8,1.49-3.79.99-.99,2.3-1.49,3.91-1.49,1.79,0,3.2.51,4.24,1.54,1.04,1.02,1.58,2.45,1.62,4.28l-2.53.21c-.03-1.15-.37-2.04-.99-2.67-.63-.63-1.48-.93-2.54-.93-.83,0-1.51.23-2.03.7-.52.47-.78,1.01-.78,1.62,0,.53.16.99.47,1.37.31.39,1.1.92,2.38,1.57,1.95,1.03,3.19,1.85,3.72,2.46.8.96,1.21,2.13,1.21,3.5,0,1.52-.54,2.83-1.62,3.93-1.08,1.1-2.58,1.64-4.5,1.64s-3.44-.55-4.53-1.66c-1.1-1.1-1.64-2.67-1.64-4.69v-.34ZM242.04,190.87l3.15-18.38h2.27l-.64,3.75c1.51-2.78,3.02-4.17,4.55-4.17.52,0,1.15.22,1.9.68l-1.05,2.91c-.45-.4-.93-.59-1.42-.59-.95,0-1.89.62-2.83,1.86-.94,1.24-1.67,3.43-2.2,6.57l-1.28,7.37h-2.44ZM229.47,180.07h8.47v-.64c0-1.64-.33-2.87-.97-3.69-.64-.82-1.47-1.23-2.48-1.23-1.09,0-2.08.47-2.98,1.39-.91.92-1.58,2.31-2.04,4.17ZM236.93,184.62l2.51.31c-.41,1.79-1.38,3.35-2.89,4.67-1.26,1.12-2.66,1.68-4.21,1.68-1.1,0-2.1-.3-3-.89-.9-.59-1.61-1.48-2.15-2.67-.53-1.18-.8-2.59-.8-4.23,0-2.16.41-4.17,1.22-6.05.82-1.87,1.81-3.23,2.99-4.09,1.18-.86,2.45-1.29,3.82-1.29,1.74,0,3.17.67,4.27,1.99,1.11,1.33,1.66,3.2,1.66,5.63,0,.9-.06,1.82-.19,2.77h-11.11c-.04.37-.05.7-.05.99,0,1.73.33,3.04.99,3.94.66.89,1.45,1.34,2.38,1.34.87,0,1.74-.35,2.59-1.06.85-.7,1.51-1.72,1.98-3.05ZM215.12,190.87l-2.48-18.38h2.49l1.29,10.13c.14,1.15.31,2.96.52,5.42.5-1.32,1.13-2.81,1.9-4.49l5.02-11.06h2.72l-8.62,18.38h-2.85ZM204.77,190.87l3.15-18.38h2.56l-3.15,18.38h-2.56ZM208.51,169.04l.61-3.55h2.56l-.6,3.55h-2.57ZM187.48,188h3.3c1.55,0,2.86-.17,3.94-.5,1.08-.32,2.04-.97,2.9-1.92.86-.95,1.6-2.29,2.23-4.01.63-1.72.94-3.68.94-5.87,0-1.93-.27-3.46-.82-4.6-.54-1.14-1.29-1.9-2.24-2.29-.68-.29-1.75-.44-3.2-.44h-3.69l-3.36,19.62ZM184.2,190.87l4.34-25.38h6.29c1.41,0,2.48.11,3.22.33,1.08.31,2.05.89,2.9,1.75.85.85,1.51,1.99,1.97,3.41.46,1.42.69,3.05.69,4.9,0,2.46-.38,4.69-1.14,6.69-.76,2-1.69,3.66-2.81,4.96-1.11,1.3-2.41,2.22-3.9,2.73-1.13.41-2.49.61-4.07.61h-7.49ZM162.71,182.73c0,1.37.15,2.45.44,3.22.3.77.7,1.36,1.21,1.76.51.4,1.06.6,1.64.6.77,0,1.56-.32,2.36-.96.79-.64,1.48-1.71,2.06-3.2.58-1.49.87-3.03.87-4.6s-.35-2.76-1.05-3.63c-.7-.88-1.54-1.32-2.52-1.32-.79,0-1.58.36-2.36,1.06-.77.71-1.41,1.8-1.9,3.26-.49,1.46-.73,2.73-.73,3.82ZM159.5,192.53l2.59.3v.41c0,.8.22,1.4.67,1.8.45.4,1.16.61,2.12.61,1.49,0,2.58-.46,3.27-1.37.49-.67.93-2.13,1.32-4.4l.26-1.49c-1.33,1.65-2.76,2.48-4.26,2.48s-2.75-.67-3.8-2.02c-1.04-1.35-1.57-3.29-1.57-5.84,0-2.01.4-3.9,1.21-5.67.8-1.77,1.77-3.09,2.91-3.96,1.13-.87,2.28-1.31,3.44-1.31,1.97,0,3.49,1.15,4.57,3.43l.52-3.01h2.33l-3.02,17.75c-.46,2.68-1.16,4.6-2.1,5.78-1.18,1.48-2.78,2.22-4.79,2.22s-3.35-.42-4.3-1.27c-.96-.85-1.43-2.01-1.43-3.49,0-.27.02-.58.07-.93ZM143.47,190.87l3.15-18.38h2.32l-.54,3.2c1.09-1.37,2.07-2.3,2.96-2.83.89-.53,1.75-.79,2.58-.79,1.16,0,2.1.4,2.83,1.18.72.78,1.08,1.9,1.08,3.34,0,.64-.13,1.7-.38,3.15l-1.9,11.13h-2.58l2.01-11.65c.19-1.14.3-1.99.3-2.52,0-.64-.18-1.13-.54-1.5-.37-.36-.86-.54-1.48-.54-1.29,0-2.45.57-3.49,1.71-1.03,1.14-1.79,3.13-2.27,5.96l-1.47,8.55h-2.56ZM136.91,190.87l3.15-18.38h2.56l-3.15,18.38h-2.56ZM140.65,169.04l.61-3.55h2.56l-.6,3.55h-2.56ZM123.96,183.16l-.02.74c0,1.52.35,2.77,1.06,3.74.54.75,1.26,1.12,2.15,1.12,1.16,0,2.21-.74,3.17-2.22,1.25-1.97,1.89-4.4,1.89-7.27,0-1.48-.33-2.62-.97-3.43-.64-.81-1.41-1.21-2.3-1.21s-1.68.38-2.44,1.16c-.76.77-1.37,1.93-1.83,3.48-.47,1.55-.7,2.84-.7,3.88ZM130.99,188.21c-1.45,2.05-2.99,3.08-4.6,3.08-1.39,0-2.57-.63-3.53-1.88-.97-1.26-1.45-3.14-1.45-5.66,0-2.25.38-4.31,1.16-6.19.77-1.88,1.72-3.26,2.86-4.15,1.13-.89,2.25-1.34,3.37-1.34,1.85,0,3.26,1.11,4.21,3.31l1.7-9.89h2.56l-4.34,25.38h-2.37l.45-2.66ZM104.68,190.87l3.15-18.38h2.32l-.54,3.2c1.09-1.37,2.07-2.3,2.96-2.83.89-.53,1.75-.79,2.58-.79,1.16,0,2.1.4,2.83,1.18.72.78,1.08,1.9,1.08,3.34,0,.64-.13,1.7-.38,3.15l-1.9,11.13h-2.58l2.01-11.65c.19-1.14.3-1.99.3-2.52,0-.64-.18-1.13-.54-1.5-.37-.36-.86-.54-1.48-.54-1.29,0-2.45.57-3.49,1.71-1.03,1.14-1.79,3.13-2.27,5.96l-1.47,8.55h-2.56ZM92.11,180.07h8.47v-.64c0-1.64-.33-2.87-.97-3.69-.64-.82-1.47-1.23-2.48-1.23-1.09,0-2.08.47-2.98,1.39-.91.92-1.58,2.31-2.04,4.17ZM99.57,184.62l2.51.31c-.41,1.79-1.38,3.35-2.89,4.67-1.26,1.12-2.66,1.68-4.21,1.68-1.1,0-2.1-.3-3-.89-.9-.59-1.61-1.48-2.15-2.67-.53-1.18-.8-2.59-.8-4.23,0-2.16.41-4.17,1.22-6.05.82-1.87,1.81-3.23,2.99-4.09,1.18-.86,2.45-1.29,3.82-1.29,1.74,0,3.17.67,4.27,1.99,1.1,1.33,1.66,3.2,1.66,5.63,0,.9-.06,1.82-.19,2.77h-11.12c-.04.37-.05.7-.05.99,0,1.73.33,3.04.99,3.94.66.89,1.45,1.34,2.38,1.34.87,0,1.74-.35,2.59-1.06.85-.7,1.51-1.72,1.98-3.05ZM84.36,184.17l2.58.33c-.64,2.3-1.57,4-2.77,5.12-1.2,1.11-2.54,1.67-4.02,1.67-1.6,0-2.91-.63-3.95-1.88-1.05-1.26-1.57-3.08-1.57-5.47s.38-4.47,1.15-6.39c.77-1.91,1.74-3.3,2.91-4.17,1.18-.86,2.48-1.3,3.91-1.3,1.55,0,2.81.54,3.79,1.63.98,1.08,1.46,2.57,1.45,4.47l-2.53.21c0-1.2-.28-2.12-.84-2.77-.56-.64-1.25-.96-2.07-.96-.91,0-1.74.3-2.47.91-.73.6-1.37,1.73-1.9,3.36-.54,1.63-.8,3.45-.8,5.42,0,1.48.29,2.6.87,3.37.58.77,1.28,1.15,2.09,1.15s1.63-.38,2.39-1.16c.76-.77,1.36-1.95,1.78-3.53ZM59.57,184.59l2.58-.2c-.01,1.5.32,2.62.99,3.36.67.74,1.58,1.11,2.74,1.11,1.05,0,1.88-.26,2.49-.79.61-.53.92-1.2.92-2.01,0-.59-.19-1.12-.57-1.6-.39-.47-1.24-1.05-2.54-1.73-1.5-.79-2.49-1.39-2.97-1.81-.48-.42-.85-.93-1.12-1.54-.27-.6-.4-1.28-.4-2.03,0-1.54.5-2.8,1.49-3.79.99-.99,2.3-1.49,3.91-1.49,1.79,0,3.2.51,4.24,1.54,1.04,1.02,1.58,2.45,1.62,4.28l-2.53.21c-.03-1.15-.37-2.04-.99-2.67-.63-.63-1.48-.93-2.54-.93-.83,0-1.51.23-2.03.7-.52.47-.78,1.01-.78,1.62,0,.53.16.99.47,1.37.31.39,1.11.92,2.38,1.57,1.95,1.03,3.19,1.85,3.72,2.46.8.96,1.21,2.13,1.21,3.5,0,1.52-.54,2.83-1.62,3.93-1.08,1.1-2.58,1.64-4.5,1.64s-3.44-.55-4.53-1.66c-1.1-1.1-1.64-2.67-1.64-4.69v-.34ZM43.26,190.87l3.15-18.38h2.32l-.54,3.2c1.09-1.37,2.07-2.3,2.96-2.83.89-.53,1.75-.79,2.58-.79,1.16,0,2.1.4,2.83,1.18.72.78,1.08,1.9,1.08,3.34,0,.64-.13,1.7-.38,3.15l-1.9,11.13h-2.58l2.01-11.65c.2-1.14.3-1.99.3-2.52,0-.64-.18-1.13-.54-1.5-.37-.36-.86-.54-1.48-.54-1.29,0-2.45.57-3.49,1.71-1.03,1.14-1.79,3.13-2.27,5.96l-1.47,8.55h-2.56ZM38.21,181.56c-.63.3-1.71.53-3.22.69-1.55.16-2.61.37-3.18.62-.58.25-1.03.64-1.35,1.16-.32.52-.49,1.12-.49,1.8,0,.94.26,1.68.78,2.22.52.54,1.21.82,2.08.82.82,0,1.61-.25,2.37-.76.76-.51,1.38-1.24,1.86-2.2.48-.96.86-2.4,1.15-4.34ZM37.26,188.58c-.94.99-1.84,1.69-2.66,2.1-.83.4-1.68.6-2.53.6-1.34,0-2.45-.48-3.33-1.44-.88-.96-1.32-2.26-1.32-3.91,0-1.18.25-2.2.76-3.08.51-.88,1.22-1.55,2.14-2.02.92-.47,2.23-.74,3.94-.82,1.44-.08,2.43-.17,2.97-.26.54-.09,1-.23,1.38-.41.21-.88.31-1.6.31-2.15,0-.77-.28-1.39-.84-1.86-.56-.47-1.37-.7-2.43-.7-2.13,0-3.52,1.12-4.15,3.36l-2.59-.28c1.09-3.76,3.4-5.64,6.91-5.64,1.73,0,3.1.46,4.12,1.36,1.02.91,1.52,2.05,1.52,3.42,0,.97-.12,2.1-.35,3.41l-.83,4.57c-.27,1.45-.4,2.63-.4,3.53,0,.64.1,1.47.3,2.51h-2.58c-.15-.58-.25-1.34-.31-2.29ZM17.41,190.87l3.15-18.38h2.27l-.64,3.75c1.51-2.78,3.02-4.17,4.55-4.17.52,0,1.15.22,1.9.68l-1.05,2.91c-.45-.4-.93-.59-1.42-.59-.95,0-1.89.62-2.83,1.86-.94,1.24-1.67,3.43-2.2,6.57l-1.28,7.37h-2.44ZM6.59,190.87l3.87-22.49H3.62l.5-2.89h16.38l-.49,2.89h-6.79l-3.84,22.49h-2.79Z"/>
    </g>
  </g>
</svg>