<?xml version="1.0" encoding="utf-8"?><!-- Uploaded to: SVG Repo, www.svgrepo.com, Generator: SVG Repo Mixer Tools -->
<svg width="800px" height="800px" viewBox="0 0 24 24" fill="none" xmlns="http://www.w3.org/2000/svg">
<path d="M10 10C10 8.89543 10.8954 8 12 8C13.1046 8 14 8.89543 14 10C14 11.1046 13.1046 12 12 12C10.8954 12 10 11.1046 10 10Z" fill="#152C70"/>
<path fill-rule="evenodd" clip-rule="evenodd" d="M7.84129 3.12904C9.07122 2.39108 10.4805 2 11.9155 2H12.0845C13.5195 2 14.9288 2.39108 16.1587 3.12904C18.5391 4.55727 20 7.1321 20 9.90941C20 11.47 19.5381 12.9957 18.6724 14.2942L14.3868 20.7227C13.8547 21.5207 12.9591 22 12 22C11.0409 22 10.1453 21.5207 9.61325 20.7227L5.3276 14.2942C4.46194 12.9957 4 11.47 4 9.90941C4 7.13211 5.46089 4.55727 7.84129 3.12904ZM12 6C9.79086 6 8 7.79086 8 10C8 12.2091 9.79086 14 12 14C14.2091 14 16 12.2091 16 10C16 7.79086 14.2091 6 12 6Z" fill="#152C70"/>
</svg>