<?xml version="1.0" encoding="UTF-8"?>
<svg id="Layer_2" data-name="Layer 2" xmlns="http://www.w3.org/2000/svg" viewBox="0 0 122.5 76.56">
  <defs>
    <style>
      .cls-1 {
        fill: #00aeef;
      }
    </style>
  </defs>
  <g id="Layer_1-2" data-name="Layer 1">
    <path class="cls-1" d="M107.05,31.98s-4.15-1.67-8.08-1.5c-2.91.12-5.68.53-8.27,1.46,3.57-2.02,7.68-3.2,12.07-3.2,1.48,0,2.93.15,4.34.41-.77-16.22-14.14-29.15-30.55-29.15-10.93,0-19.47,5-24.88,13.62,7.36,2.24,8.08,10.67,8.08,10.67-2.67-6.57-9.8-8.57-9.8-8.57-1.31-.23-2.64-.4-4.03-.4-9.38,0-16.49,3.63-20.04,11.7,10,.17,18.1,8.85,19.18,20.64-2.84-9.72-11.8-16.83-22.44-16.83-3.19,0-6.22.64-8.99,1.8C5.61,36.2,0,44.24,0,53.59c0,12.68,10.29,22.97,22.97,22.97h76.56c12.68,0,22.97-10.29,22.97-22.97,0-10.03-6.48-18.48-15.45-21.61"/>
  </g>
</svg>