<?xml version="1.0" encoding="UTF-8"?>
<svg id="Layer_2" data-name="Layer 2" xmlns="http://www.w3.org/2000/svg" viewBox="0 0 77.88 81.57">
  <defs>
    <style>
      .cls-1 {
        fill: #f19d38;
      }

      .cls-2 {
        opacity: .4;
      }

      .cls-3 {
        opacity: .5;
      }
    </style>
  </defs>
  <g id="Layer_1-2" data-name="Layer 1">
    <g>
      <g class="cls-2">
        <path class="cls-1" d="M38.94,0C17.43,0,0,17.43,0,38.94c0,29.89,38.94,42.63,38.94,42.63,0,0,38.94-12.74,38.94-42.63C77.88,17.43,60.44,0,38.94,0Z"/>
      </g>
      <g class="cls-3">
        <path class="cls-1" d="M38.94,10.38c-16.03,0-29.03,13-29.03,29.03,0,22.28,29.03,31.78,29.03,31.78,0,0,29.03-9.5,29.03-31.78,0-16.03-13-29.03-29.03-29.03Z"/>
      </g>
      <path class="cls-1" d="M38.94,20.85c-10.51,0-19.03,8.52-19.03,19.03,0,14.61,19.03,20.84,19.03,20.84,0,0,19.03-6.23,19.03-20.84,0-10.51-8.52-19.03-19.03-19.03Z"/>
    </g>
  </g>
</svg>